# Created by MKDS Course Modifier
mtllib arrow.mtl
g polygon0
usemtl arrow_mat
v 0.03149414 0.02416992 0.2597656
v -0.03149414 0.02416992 -0.5097656
v -0.03149414 0.02416992 0.2597656
v 0 -0.03051758 -0.5097656
v 0 -0.03051758 0.2597656
v 0.03149414 0.02416992 -0.5097656
v 0.03149414 0.02416992 0.2597656
v -0.03149414 0.02416992 -0.5097656
vn 0.5 0.8652344 0
vn -0.5 0.8652344 0
vn -1 0 0
vn -0.5 -0.8652344 0
vn 0.5 -0.8652344 0
vn 0.9980469 0 0
vn 0.5 0.8652344 0
vn -0.5 0.8652344 0
vt 0 -0.01953125
vt 1 -0.01953125
vt 0 -0.01953125
vt 1 -0.09375
vt 0 -0.09375
vt 1 -0.01953125
vt 0 -0.01953125
vt 1 -0.01953125
f 1/1/1 2/2/2 3/3/3
f 2/2/2 4/4/4 3/3/3
f 3/3/3 4/4/4 5/5/5
f 4/4/4 6/6/6 5/5/5
f 5/5/5 6/6/6 7/7/7
f 6/6/6 8/8/8 7/7/7
v 0 0 -0.189209
v 0 0 -0.4599609
v 0.08666992 -0.05004883 -0.2946777
v 0.08666992 -0.05004883 -0.4821777
vn -0.5 -0.8652344 0
vn -0.5 -0.8652344 0
vn -0.5 -0.8652344 0
vn -0.5 -0.8652344 0
vt 0 -1
vt 1 -1
vt 0 -0.5703125
vt 1 -0.5703125
f 9/9/9 10/10/10 11/11/11
f 10/10/10 12/12/12 11/11/11
v 0 0 -0.189209
v -0.08666992 -0.05004883 -0.2946777
v 0 0 -0.4599609
v -0.08666992 -0.05004883 -0.4821777
vn 0.5 -0.8652344 0
vn 0.5 -0.8652344 0
vn 0.5 -0.8652344 0
vn 0.5 -0.8652344 0
vt 0 -1
vt 0 -0.5703125
vt 1 -1
vt 1 -0.5703125
f 13/13/13 14/14/14 15/15/15
f 14/14/14 16/16/16 15/15/15
v 0 0 -0.189209
v 0.08666992 -0.05004883 -0.2946777
v 0 0 -0.4599609
v 0.08666992 -0.05004883 -0.4821777
vn 0.5 0.8652344 0
vn 0.5 0.8652344 0
vn 0.5 0.8652344 0
vn 0.5 0.8652344 0
vt 0 -1
vt 0 -0.5703125
vt 1 -1
vt 1 -0.5703125
f 17/17/17 18/18/18 19/19/19
f 18/18/18 20/20/20 19/19/19
v 0 0 -0.189209
v 0 0 -0.4599609
v -0.08666992 -0.05004883 -0.2946777
v -0.08666992 -0.05004883 -0.4821777
vn -0.5 0.8652344 0
vn -0.5 0.8652344 0
vn -0.5 0.8652344 0
vn -0.5 0.8652344 0
vt 0 -1
vt 1 -1
vt 0 -0.5703125
vt 1 -0.5703125
f 21/21/21 22/22/22 23/23/23
f 22/22/22 24/24/24 23/23/23
v 0 0 -0.189209
v 0 0.1000977 -0.2946777
v 0 0 -0.4599609
v 0 0.1000977 -0.4821777
vn -1 0 0
vn -1 0 0
vn -1 0 0
vn -1 0 0
vt 0.00390625 -1
vt 0.00390625 -0.5585938
vt 0.9960938 -1
vt 0.9960938 -0.5585938
f 25/25/25 26/26/26 27/27/27
f 26/26/26 28/28/28 27/27/27
v 0 0 -0.189209
v 0 0 -0.4599609
v 0 0.1000977 -0.2946777
v 0 0.1000977 -0.4821777
vn 0.9980469 0 0
vn 0.9980469 0 0
vn 0.9980469 0 0
vn 0.9980469 0 0
vt 0 -1
vt 1 -1
vt 0 -0.5703125
vt 1 -0.5703125
f 29/29/29 30/30/30 31/31/31
f 30/30/30 32/32/32 31/31/31
v -0.1193848 0 0.3181152
v 0 0 0.1904297
v 0 -0.1191406 0.3181152
v 0 0 0.1904297
v 0.1193848 0 0.3181152
v 0 -0.1191406 0.3181152
v 0 0.1191406 0.3181152
v 0.1193848 0 0.3181152
v 0 0 0.1904297
v 0.1193848 0 0.3181152
v 0 0.1191406 0.3181152
v 0 0 0.515625
v 0 -0.1191406 0.3181152
v 0.1193848 0 0.3181152
v 0 0 0.515625
v -0.1193848 0 0.3181152
v 0 -0.1191406 0.3181152
v 0 0 0.515625
v 0 0.1191406 0.3181152
v -0.1193848 0 0.3181152
v 0 0 0.515625
v 0 0.1191406 0.3181152
v 0 0 0.1904297
v -0.1193848 0 0.3181152
vn -0.5898438 -0.5898438 -0.5507813
vn -0.5898438 -0.5898438 -0.5507813
vn -0.5898438 -0.5898438 -0.5507813
vn 0.5898438 -0.5898438 -0.5507813
vn 0.5898438 -0.5898438 -0.5507813
vn 0.5898438 -0.5898438 -0.5507813
vn 0.5898438 0.5898438 -0.5507813
vn 0.5898438 0.5898438 -0.5507813
vn 0.5898438 0.5898438 -0.5507813
vn 0.6503906 0.6503906 0.3925781
vn 0.6503906 0.6503906 0.3925781
vn 0.6503906 0.6503906 0.3925781
vn 0.6503906 -0.6503906 0.3925781
vn 0.6503906 -0.6503906 0.3925781
vn 0.6503906 -0.6503906 0.3925781
vn -0.6503906 -0.6503906 0.3925781
vn -0.6503906 -0.6503906 0.3925781
vn -0.6503906 -0.6503906 0.3925781
vn -0.6503906 0.6503906 0.3925781
vn -0.6503906 0.6503906 0.3925781
vn -0.6503906 0.6503906 0.3925781
vn -0.5898438 0.5898438 -0.5507813
vn -0.5898438 0.5898438 -0.5507813
vn -0.5898438 0.5898438 -0.5507813
vt 0.203125 -0.140625
vt 1.683594 -0.140625
vt 0.203125 -0.4765625
vt 1.683594 -0.140625
vt 0.203125 -0.140625
vt 0.203125 -0.4765625
vt 0.203125 -0.4765625
vt 0.203125 -0.140625
vt 1.683594 -0.140625
vt 0.9882813 -0.125
vt 0.9882813 -0.5390625
vt 0 -0.125
vt 0.9882813 -0.5390625
vt 0.9882813 -0.125
vt 0 -0.125
vt 0.9882813 -0.125
vt 0.9882813 -0.5390625
vt 0 -0.125
vt 0.9882813 -0.5390625
vt 0.9882813 -0.125
vt 0 -0.125
vt 0.203125 -0.4765625
vt 1.683594 -0.140625
vt 0.203125 -0.140625
f 33/33/33 34/34/34 35/35/35
f 36/36/36 37/37/37 38/38/38
f 39/39/39 40/40/40 41/41/41
f 42/42/42 43/43/43 44/44/44
f 45/45/45 46/46/46 47/47/47
f 48/48/48 49/49/49 50/50/50
f 51/51/51 52/52/52 53/53/53
f 54/54/54 55/55/55 56/56/56
